<svg width="512" height="512" xmlns="http://www.w3.org/2000/svg">

 <g>
  <title>Layer 1</title>
  <polygon fill="#ffffff" id="svg_3" points="234.41,369.555 277.784,369.555 313.716,255.253 256.084,152.484 198.44,254.923    "/>
  <polygon fill="#ffffff" id="svg_4" points="248.966,135.953 248.966,71.999 173.57,176.199 192.414,236.584    "/>
  <polygon fill="#ffffff" id="svg_5" points="167.137,202.444 139.052,331.817 183.137,253.453    "/>
  <polygon fill="#ffffff" id="svg_6" points="338.608,176.196 263.21,71.996 263.21,135.953 319.754,236.228    "/>
  <polygon fill="#ffffff" id="svg_7" points="373.127,331.074 345.402,202.798 329.391,253.453    "/>
  <polygon fill="#ffffff" id="svg_8" points="188.826,272.146 134.048,369.555 219.445,369.555    "/>
  <polygon fill="#ffffff" id="svg_9" points="292.739,369.555 378.105,369.555 323.308,271.788    "/>
  <path fill="#ffffff" id="svg_10" d="m414.077,373.479c0,-0.716 -0.36,-1.416 -0.358,-1.771l-43.78,-201.613c-0.688,-3.568 -2.146,-6.839 -4.285,-9.711l-90.362,-124.667c-4.242,-6.149 -11.357,-9.716 -18.857,-9.716l-0.685,0c-7.475,0 -14.601,3.57 -18.844,9.716l-90.421,124.667c-2.099,2.873 -3.549,6.143 -4.227,9.363l-43.792,201.961c0,0.353 0,0.703 -0.361,1.047c-0.694,3.243 -0.333,6.857 0.361,10.093c0.351,1.406 1.092,3.23 1.801,4.683c2.146,3.933 4.98,7.147 8.521,9.667l134.481,85.146c3.934,2.547 8.186,3.655 12.48,3.655l0.338,0c4.288,0 8.886,-1.46 12.463,-3.655l130.568,-82.62l7.111,-5.046c2.143,-1.764 3.892,-4.282 5.333,-6.796c0.704,-1.444 1.403,-3.223 1.8,-5.034c1.042,-3.236 1.042,-6.105 0.715,-9.369zm-17.126,6.851c-1.032,1.403 -2.496,2.52 -3.891,3.221l-133.089,84.443c-0.347,0.365 -1.029,0.724 -1.393,0.724c-1.103,0.356 -1.787,0.356 -2.495,0.356c-1.057,0 -1.772,0 -2.502,-0.356c-0.33,-0.365 -1.036,-0.365 -1.429,-0.724l-134.099,-85.146c-1.096,-0.709 -1.787,-1.805 -2.475,-2.893c-0.381,-0.351 -0.756,-0.696 -0.756,-1.439c0,-1.081 0,-1.775 0,-2.885l0,-0.342l43.772,-201.968c0.362,-0.707 0.362,-1.073 0.721,-1.749l0,-0.404c0.337,0 0.337,-0.365 0.729,-0.707l90.355,-124.716c0.36,-0.699 1.056,-1.046 1.393,-1.408c0.755,-0.366 1.464,-0.708 2.159,-1.1c0.708,-0.365 1.442,-0.365 2.141,-0.365c0.705,0 1.393,0 2.147,0.365c0.71,0.39 1.393,0.734 2.137,1.1c0.349,0.367 1.046,0.709 1.417,1.408l90.709,124.716c0.383,1.111 0.731,1.787 1.097,2.86l43.025,199.814c1.442,2.154 1.442,5.047 0.327,7.195z"/>
  <polygon fill="#ffffff" id="svg_11" points="238.994,383.91 256.084,438.203 273.149,383.91    "/>
  <polygon fill="#ffffff" id="svg_12" points="268.903,445.35 365.65,383.91 288.092,383.91    "/>
  <polygon fill="#ffffff" id="svg_13" points="146.478,383.91 243.266,445.35 224.064,383.91    "/>
  <g id="Layer_1"/>
 </g>
</svg>