<svg width="512" height="512" xmlns="http://www.w3.org/2000/svg">

 <g>
  <title>Layer 1</title>
  <polygon fill="#ffffff" id="svg_3" points="234.41,369.555 277.784,369.555 313.716,255.253 256.084,152.484 198.44,254.923    "/>
  <polygon fill="#ffffff" id="svg_4" points="248.966,135.953 248.966,71.999 173.57,176.199 192.414,236.584    "/>
  <polygon fill="#ffffff" id="svg_5" points="167.137,202.444 139.052,331.817 183.137,253.453    "/>
  <polygon fill="#ffffff" id="svg_6" points="338.608,176.196 263.21,71.996 263.21,135.953 319.754,236.228    "/>
  <polygon fill="#ffffff" id="svg_7" points="373.127,331.074 345.402,202.798 329.391,253.453    "/>
  <polygon fill="#ffffff" id="svg_8" points="188.826,272.146 134.048,369.555 219.445,369.555    "/>
  <polygon fill="#ffffff" id="svg_9" points="292.739,369.555 378.105,369.555 323.308,271.788    "/>
  <polygon fill="#ffffff" id="svg_11" points="238.994,383.91 256.084,438.203 273.149,383.91    "/>
  <polygon fill="#ffffff" id="svg_12" points="268.903,445.35 365.65,383.91 288.092,383.91    "/>
  <polygon fill="#ffffff" id="svg_13" points="146.478,383.91 243.266,445.35 224.064,383.91    "/>
  <g id="Layer_1"/>
 </g>
</svg>