<?xml version="1.0" encoding="utf-8"?>
<!-- Generator: Adobe Illustrator 25.2.1, SVG Export Plug-In . SVG Version: 6.00 Build 0)  -->
<svg version="1.1" id="Layer_1" xmlns="http://www.w3.org/2000/svg" xmlns:xlink="http://www.w3.org/1999/xlink" x="0px" y="0px"
	 viewBox="0 0 500 500" style="enable-background:new 0 0 500 500;" xml:space="preserve">
<style type="text/css">
	.st0{fill:url(#SVGID_1_);}
	.st1{fill:url(#SVGID_2_);}
	.st2{fill:url(#SVGID_3_);}
	.st3{fill:url(#SVGID_4_);}
	.st4{fill:url(#SVGID_5_);}
	.st5{fill:url(#SVGID_6_);}
	.st6{fill:url(#SVGID_7_);}
</style>
<g>
	<linearGradient id="SVGID_1_" gradientUnits="userSpaceOnUse" x1="155.1637" y1="110.5115" x2="249.7083" y2="110.5115">
		<stop  offset="0" style="stop-color:#FFFFFF"/>
		<stop  offset="1" style="stop-color:#00AEEF"/>
	</linearGradient>
	<polygon class="st0" points="249.71,43.06 155.16,177.96 249.71,43.06 	"/>
	<linearGradient id="SVGID_2_" gradientUnits="userSpaceOnUse" x1="296.9807" y1="506.3204" x2="296.9807" y2="43.062">
		<stop  offset="0" style="stop-color:#FFFFFF"/>
		<stop  offset="1" style="stop-color:#00AEEF"/>
	</linearGradient>
	<polygon class="st1" points="249.71,43.06 249.71,43.06 344.25,177.96 	"/>
	<linearGradient id="SVGID_3_" gradientUnits="userSpaceOnUse" x1="249.7083" y1="475.6124" x2="249.7083" y2="43.062">
		<stop  offset="0" style="stop-color:#FFFFFF"/>
		<stop  offset="0.1145" style="stop-color:#FAFDFE"/>
		<stop  offset="0.2571" style="stop-color:#EAF9FB"/>
		<stop  offset="0.4148" style="stop-color:#D1F1F6"/>
		<stop  offset="0.5833" style="stop-color:#ADE6EE"/>
		<stop  offset="0.7604" style="stop-color:#80D8E5"/>
		<stop  offset="0.9421" style="stop-color:#49C8DA"/>
		<stop  offset="1" style="stop-color:#36C2D6"/>
	</linearGradient>
	<polygon class="st2" points="344.25,177.96 249.71,43.06 155.16,177.96 201.82,177.96 201.82,456.94 298.63,456.66 298.63,456.66 
		298.63,177.96 	"/>
	<linearGradient id="SVGID_4_" gradientUnits="userSpaceOnUse" x1="347.6569" y1="177.9611" x2="347.6569" y2="456.6624">
		<stop  offset="0" style="stop-color:#FFFFFF"/>
		<stop  offset="1" style="stop-color:#36C2D6"/>
	</linearGradient>
	<polygon class="st3" points="345.36,179.54 344.25,177.96 298.63,177.96 298.63,456.66 396.68,396.5 	"/>
	<linearGradient id="SVGID_5_" gradientUnits="userSpaceOnUse" x1="347.6569" y1="177.9611" x2="347.6569" y2="456.6624">
		<stop  offset="0" style="stop-color:#FFFFFF"/>
		<stop  offset="1" style="stop-color:#00AEEF"/>
	</linearGradient>
	<polygon class="st4" points="298.63,456.66 298.63,456.66 396.68,396.5 	"/>
	<linearGradient id="SVGID_6_" gradientUnits="userSpaceOnUse" x1="152.5678" y1="177.9611" x2="152.5678" y2="456.9381">
		<stop  offset="0" style="stop-color:#FFFFFF"/>
		<stop  offset="1" style="stop-color:#36C2D6"/>
	</linearGradient>
	<polygon class="st5" points="155.16,177.96 154.06,179.54 103.32,396.5 201.82,456.94 201.82,456.94 201.82,177.96 	"/>
	<linearGradient id="SVGID_7_" gradientUnits="userSpaceOnUse" x1="152.5678" y1="177.9611" x2="152.5678" y2="456.9381">
		<stop  offset="0" style="stop-color:#FFFFFF"/>
		<stop  offset="1" style="stop-color:#00AEEF"/>
	</linearGradient>
	<polygon class="st6" points="103.32,396.5 201.82,456.94 201.82,456.94 201.82,456.94 	"/>
</g>
</svg>
